<mxfile host="app.diagrams.net" modified="2023-12-18T16:43:30.951Z" agent="Mozilla/5.0 (Macintosh; Intel Mac OS X 10_15_7) AppleWebKit/537.36 (KHTML, like Gecko) Chrome/119.0.0.0 Safari/537.36" etag="vnkto1H852bZ2ST4z1gd" version="22.1.11" type="github">
  <diagram name="Page-1" id="qgnvIXAmpR27c_q0Qtfe">
    <mxGraphModel dx="3372" dy="2507" grid="1" gridSize="10" guides="1" tooltips="1" connect="1" arrows="1" fold="1" page="1" pageScale="1" pageWidth="850" pageHeight="1100" math="0" shadow="0">
      <root>
        <mxCell id="0" />
        <mxCell id="1" parent="0" />
        <mxCell id="DA-zJDTFARd0w5QgR1MB-127" value="" style="rounded=0;whiteSpace=wrap;html=1;strokeColor=#A0E3F6;strokeWidth=2;fillColor=none;" parent="1" vertex="1">
          <mxGeometry x="590" y="40" width="270" height="470" as="geometry" />
        </mxCell>
        <mxCell id="DA-zJDTFARd0w5QgR1MB-132" value="" style="rounded=0;whiteSpace=wrap;html=1;fillColor=none;strokeColor=#A0E3F6;dashed=1;strokeWidth=2;" parent="1" vertex="1">
          <mxGeometry x="610" y="80" width="220" height="220" as="geometry" />
        </mxCell>
        <mxCell id="DA-zJDTFARd0w5QgR1MB-2" value="" style="rounded=0;whiteSpace=wrap;html=1;strokeColor=#FF3621;strokeWidth=2;fillColor=none;" parent="1" vertex="1">
          <mxGeometry x="320" y="40" width="210" height="470" as="geometry" />
        </mxCell>
        <mxCell id="DA-zJDTFARd0w5QgR1MB-3" value="" style="rounded=0;whiteSpace=wrap;html=1;strokeColor=#FF9900;strokeWidth=2;fillColor=none;" parent="1" vertex="1">
          <mxGeometry x="40" y="40" width="220" height="470" as="geometry" />
        </mxCell>
        <mxCell id="DA-zJDTFARd0w5QgR1MB-4" value="" style="rounded=0;whiteSpace=wrap;html=1;fillColor=none;" parent="1" vertex="1">
          <mxGeometry x="-190" y="96.5" width="170" height="180" as="geometry" />
        </mxCell>
        <mxCell id="DA-zJDTFARd0w5QgR1MB-5" value="" style="group" parent="1" vertex="1" connectable="0">
          <mxGeometry x="-190" y="203.5" width="90.00000000000006" height="80" as="geometry" />
        </mxCell>
        <mxCell id="DA-zJDTFARd0w5QgR1MB-6" value="" style="sketch=0;pointerEvents=1;shadow=0;dashed=0;html=1;strokeColor=none;fillColor=#505050;labelPosition=center;verticalLabelPosition=bottom;verticalAlign=top;outlineConnect=0;align=center;shape=mxgraph.office.communications.messages_queued;aspect=fixed;" parent="DA-zJDTFARd0w5QgR1MB-5" vertex="1">
          <mxGeometry x="29.300000000000026" width="31.05" height="30" as="geometry" />
        </mxCell>
        <mxCell id="DA-zJDTFARd0w5QgR1MB-7" value="Inbound Email&lt;br style=&quot;font-size: 9px;&quot;&gt;Attachment" style="text;html=1;strokeColor=none;fillColor=none;align=center;verticalAlign=middle;whiteSpace=wrap;rounded=0;fontSize=9;" parent="DA-zJDTFARd0w5QgR1MB-5" vertex="1">
          <mxGeometry x="-0.1699999999999715" y="30" width="90" height="30" as="geometry" />
        </mxCell>
        <mxCell id="DA-zJDTFARd0w5QgR1MB-11" value="" style="group" parent="1" vertex="1" connectable="0">
          <mxGeometry x="-115" y="133.5" width="90" height="130" as="geometry" />
        </mxCell>
        <mxCell id="DA-zJDTFARd0w5QgR1MB-12" value="" style="sketch=0;pointerEvents=1;shadow=0;dashed=0;html=1;strokeColor=none;fillColor=#505050;labelPosition=center;verticalLabelPosition=bottom;verticalAlign=top;outlineConnect=0;align=center;shape=mxgraph.office.servers.file_server;aspect=fixed;" parent="DA-zJDTFARd0w5QgR1MB-11" vertex="1">
          <mxGeometry x="28.93" width="24.11" height="30" as="geometry" />
        </mxCell>
        <mxCell id="DA-zJDTFARd0w5QgR1MB-13" value="Third-Party&lt;br style=&quot;font-size: 9px;&quot;&gt;SFTP Server" style="text;html=1;strokeColor=none;fillColor=none;align=center;verticalAlign=middle;whiteSpace=wrap;rounded=0;fontSize=9;" parent="DA-zJDTFARd0w5QgR1MB-11" vertex="1">
          <mxGeometry x="-4.02" y="30" width="90" height="30" as="geometry" />
        </mxCell>
        <mxCell id="ec4kGuJ63dupFwRssyIy-5" value="" style="group" vertex="1" connectable="0" parent="DA-zJDTFARd0w5QgR1MB-11">
          <mxGeometry x="-4.02000000000001" y="70" width="90" height="60" as="geometry" />
        </mxCell>
        <mxCell id="DA-zJDTFARd0w5QgR1MB-16" value="" style="sketch=0;pointerEvents=1;shadow=0;dashed=0;html=1;strokeColor=none;fillColor=#505050;labelPosition=center;verticalLabelPosition=bottom;verticalAlign=top;outlineConnect=0;align=center;shape=mxgraph.office.communications.3rd_party_service;aspect=fixed;" parent="ec4kGuJ63dupFwRssyIy-5" vertex="1">
          <mxGeometry x="30.279999999999973" width="29.45" height="30" as="geometry" />
        </mxCell>
        <mxCell id="DA-zJDTFARd0w5QgR1MB-15" value="Third-Party&lt;br style=&quot;font-size: 9px;&quot;&gt;Process" style="text;html=1;strokeColor=none;fillColor=none;align=center;verticalAlign=middle;whiteSpace=wrap;rounded=0;fontSize=9;" parent="ec4kGuJ63dupFwRssyIy-5" vertex="1">
          <mxGeometry y="30" width="90" height="30" as="geometry" />
        </mxCell>
        <mxCell id="DA-zJDTFARd0w5QgR1MB-17" value="" style="group" parent="1" vertex="1" connectable="0">
          <mxGeometry x="-185" y="133.5" width="90" height="80" as="geometry" />
        </mxCell>
        <mxCell id="DA-zJDTFARd0w5QgR1MB-18" value="" style="sketch=0;pointerEvents=1;shadow=0;dashed=0;html=1;strokeColor=none;fillColor=#505050;labelPosition=center;verticalLabelPosition=bottom;verticalAlign=top;outlineConnect=0;align=center;shape=mxgraph.office.communications.public_im_cloud_service;aspect=fixed;" parent="DA-zJDTFARd0w5QgR1MB-17" vertex="1">
          <mxGeometry x="24.31" width="31.04" height="30" as="geometry" />
        </mxCell>
        <mxCell id="DA-zJDTFARd0w5QgR1MB-19" value="Third-Party&lt;br style=&quot;font-size: 9px;&quot;&gt;Internet API" style="text;html=1;strokeColor=none;fillColor=none;align=center;verticalAlign=middle;whiteSpace=wrap;rounded=0;fontSize=9;" parent="DA-zJDTFARd0w5QgR1MB-17" vertex="1">
          <mxGeometry y="30" width="90" height="30" as="geometry" />
        </mxCell>
        <mxCell id="DA-zJDTFARd0w5QgR1MB-40" value="B-Flexion data sources" style="text;strokeColor=none;fillColor=none;html=1;fontSize=14;fontStyle=1;verticalAlign=top;align=left;spacingLeft=6;" parent="1" vertex="1">
          <mxGeometry x="-190" y="96.5" width="210" height="40" as="geometry" />
        </mxCell>
        <mxCell id="DA-zJDTFARd0w5QgR1MB-44" value="AWS Landing Zone" style="text;strokeColor=none;fillColor=none;html=1;fontSize=14;fontStyle=1;verticalAlign=top;align=left;spacingLeft=6;" parent="1" vertex="1">
          <mxGeometry x="40" y="40" width="160" height="40" as="geometry" />
        </mxCell>
        <mxCell id="DA-zJDTFARd0w5QgR1MB-54" value="DataBricks Account" style="text;strokeColor=none;fillColor=none;html=1;fontSize=14;fontStyle=1;verticalAlign=top;align=left;spacingLeft=6;" parent="1" vertex="1">
          <mxGeometry x="320" y="40" width="350" height="40" as="geometry" />
        </mxCell>
        <mxCell id="DA-zJDTFARd0w5QgR1MB-92" value="" style="sketch=0;outlineConnect=0;fontColor=#232F3E;gradientColor=none;fillColor=#E7157B;strokeColor=none;dashed=0;verticalLabelPosition=bottom;verticalAlign=top;align=center;html=1;fontSize=12;fontStyle=0;aspect=fixed;pointerEvents=1;shape=mxgraph.aws4.organizations_account2;" parent="1" vertex="1">
          <mxGeometry x="80" y="120" width="40" height="40" as="geometry" />
        </mxCell>
        <mxCell id="DA-zJDTFARd0w5QgR1MB-93" value="Ireland Region" style="points=[[0,0],[0.25,0],[0.5,0],[0.75,0],[1,0],[1,0.25],[1,0.5],[1,0.75],[1,1],[0.75,1],[0.5,1],[0.25,1],[0,1],[0,0.75],[0,0.5],[0,0.25]];outlineConnect=0;gradientColor=none;html=1;whiteSpace=wrap;fontSize=12;fontStyle=0;container=1;pointerEvents=0;collapsible=0;recursiveResize=0;shape=mxgraph.aws4.group;grIcon=mxgraph.aws4.group_region;strokeColor=#00A4A6;fillColor=none;verticalAlign=top;align=left;spacingLeft=30;fontColor=#147EBA;dashed=1;" parent="1" vertex="1">
          <mxGeometry x="60" y="80" width="170" height="220" as="geometry" />
        </mxCell>
        <mxCell id="DA-zJDTFARd0w5QgR1MB-94" value="" style="sketch=0;outlineConnect=0;fontColor=#232F3E;gradientColor=none;fillColor=#E7157B;strokeColor=none;dashed=0;verticalLabelPosition=bottom;verticalAlign=top;align=center;html=1;fontSize=12;fontStyle=0;aspect=fixed;pointerEvents=1;shape=mxgraph.aws4.organizations_account2;" parent="1" vertex="1">
          <mxGeometry x="80" y="180" width="40" height="40" as="geometry" />
        </mxCell>
        <mxCell id="DA-zJDTFARd0w5QgR1MB-95" value="" style="sketch=0;outlineConnect=0;fontColor=#232F3E;gradientColor=none;fillColor=#E7157B;strokeColor=none;dashed=0;verticalLabelPosition=bottom;verticalAlign=top;align=center;html=1;fontSize=12;fontStyle=0;aspect=fixed;pointerEvents=1;shape=mxgraph.aws4.organizations_account2;" parent="1" vertex="1">
          <mxGeometry x="80" y="240" width="40" height="40" as="geometry" />
        </mxCell>
        <mxCell id="DA-zJDTFARd0w5QgR1MB-96" value="B-Flexion&lt;br&gt;DEV Account" style="text;html=1;strokeColor=none;fillColor=none;align=left;verticalAlign=middle;whiteSpace=wrap;rounded=0;fontColor=#336600;" parent="1" vertex="1">
          <mxGeometry x="130" y="125" width="90" height="30" as="geometry" />
        </mxCell>
        <mxCell id="DA-zJDTFARd0w5QgR1MB-97" value="B-Flexion&lt;br&gt;UAT Account" style="text;html=1;strokeColor=none;fillColor=none;align=left;verticalAlign=middle;whiteSpace=wrap;rounded=0;" parent="1" vertex="1">
          <mxGeometry x="130" y="185" width="90" height="30" as="geometry" />
        </mxCell>
        <mxCell id="DA-zJDTFARd0w5QgR1MB-98" value="B-Flexion&lt;br&gt;PROD Account" style="text;html=1;strokeColor=none;fillColor=none;align=left;verticalAlign=middle;whiteSpace=wrap;rounded=0;" parent="1" vertex="1">
          <mxGeometry x="130" y="245" width="90" height="30" as="geometry" />
        </mxCell>
        <mxCell id="DA-zJDTFARd0w5QgR1MB-101" value="Switzerland Region" style="points=[[0,0],[0.25,0],[0.5,0],[0.75,0],[1,0],[1,0.25],[1,0.5],[1,0.75],[1,1],[0.75,1],[0.5,1],[0.25,1],[0,1],[0,0.75],[0,0.5],[0,0.25]];outlineConnect=0;gradientColor=none;html=1;whiteSpace=wrap;fontSize=12;fontStyle=0;container=1;pointerEvents=0;collapsible=0;recursiveResize=0;shape=mxgraph.aws4.group;grIcon=mxgraph.aws4.group_region;strokeColor=#00A4A6;fillColor=none;verticalAlign=top;align=left;spacingLeft=30;fontColor=#147EBA;dashed=1;" parent="1" vertex="1">
          <mxGeometry x="60" y="320" width="170" height="160" as="geometry" />
        </mxCell>
        <mxCell id="DA-zJDTFARd0w5QgR1MB-102" value="" style="sketch=0;outlineConnect=0;fontColor=#232F3E;gradientColor=none;fillColor=#E7157B;strokeColor=none;dashed=0;verticalLabelPosition=bottom;verticalAlign=top;align=center;html=1;fontSize=12;fontStyle=0;aspect=fixed;pointerEvents=1;shape=mxgraph.aws4.organizations_account2;" parent="1" vertex="1">
          <mxGeometry x="80" y="360" width="40" height="40" as="geometry" />
        </mxCell>
        <mxCell id="DA-zJDTFARd0w5QgR1MB-103" value="" style="sketch=0;outlineConnect=0;fontColor=#232F3E;gradientColor=none;fillColor=#E7157B;strokeColor=none;dashed=0;verticalLabelPosition=bottom;verticalAlign=top;align=center;html=1;fontSize=12;fontStyle=0;aspect=fixed;pointerEvents=1;shape=mxgraph.aws4.organizations_account2;" parent="1" vertex="1">
          <mxGeometry x="80" y="420" width="40" height="40" as="geometry" />
        </mxCell>
        <mxCell id="DA-zJDTFARd0w5QgR1MB-105" value="Private&lt;br&gt;UAT Account" style="text;html=1;strokeColor=none;fillColor=none;align=left;verticalAlign=middle;whiteSpace=wrap;rounded=0;" parent="1" vertex="1">
          <mxGeometry x="130" y="365" width="90" height="30" as="geometry" />
        </mxCell>
        <mxCell id="DA-zJDTFARd0w5QgR1MB-106" value="Private&lt;br&gt;PROD Account" style="text;html=1;strokeColor=none;fillColor=none;align=left;verticalAlign=middle;whiteSpace=wrap;rounded=0;" parent="1" vertex="1">
          <mxGeometry x="130" y="425" width="90" height="30" as="geometry" />
        </mxCell>
        <mxCell id="DA-zJDTFARd0w5QgR1MB-108" value="" style="image;sketch=0;aspect=fixed;html=1;points=[];align=center;fontSize=12;image=img/lib/mscae/Databricks.svg;" parent="1" vertex="1">
          <mxGeometry x="353.3299999999999" y="120" width="41.67" height="40" as="geometry" />
        </mxCell>
        <mxCell id="DA-zJDTFARd0w5QgR1MB-109" value="" style="image;sketch=0;aspect=fixed;html=1;points=[];align=center;fontSize=12;image=img/lib/mscae/Databricks.svg;" parent="1" vertex="1">
          <mxGeometry x="353.3299999999999" y="180" width="41.67" height="40" as="geometry" />
        </mxCell>
        <mxCell id="DA-zJDTFARd0w5QgR1MB-110" value="" style="image;sketch=0;aspect=fixed;html=1;points=[];align=center;fontSize=12;image=img/lib/mscae/Databricks.svg;" parent="1" vertex="1">
          <mxGeometry x="353.3299999999999" y="240" width="41.67" height="40" as="geometry" />
        </mxCell>
        <mxCell id="DA-zJDTFARd0w5QgR1MB-112" value="" style="image;sketch=0;aspect=fixed;html=1;points=[];align=center;fontSize=12;image=img/lib/mscae/Databricks.svg;" parent="1" vertex="1">
          <mxGeometry x="353.3299999999999" y="360" width="41.67" height="40" as="geometry" />
        </mxCell>
        <mxCell id="DA-zJDTFARd0w5QgR1MB-113" value="" style="image;sketch=0;aspect=fixed;html=1;points=[];align=center;fontSize=12;image=img/lib/mscae/Databricks.svg;" parent="1" vertex="1">
          <mxGeometry x="353.3299999999999" y="420" width="41.67" height="40" as="geometry" />
        </mxCell>
        <mxCell id="DA-zJDTFARd0w5QgR1MB-114" value="B-Flexion&lt;br&gt;DEV Workspace" style="text;html=1;strokeColor=none;fillColor=none;align=left;verticalAlign=middle;whiteSpace=wrap;rounded=0;fontColor=#336600;" parent="1" vertex="1">
          <mxGeometry x="410" y="125" width="110" height="30" as="geometry" />
        </mxCell>
        <mxCell id="DA-zJDTFARd0w5QgR1MB-115" value="B-Flexion&lt;br&gt;UAT Workspace" style="text;html=1;strokeColor=none;fillColor=none;align=left;verticalAlign=middle;whiteSpace=wrap;rounded=0;" parent="1" vertex="1">
          <mxGeometry x="410" y="185" width="110" height="30" as="geometry" />
        </mxCell>
        <mxCell id="DA-zJDTFARd0w5QgR1MB-116" value="B-Flexion&lt;br&gt;PROD Workspace" style="text;html=1;strokeColor=none;fillColor=none;align=left;verticalAlign=middle;whiteSpace=wrap;rounded=0;" parent="1" vertex="1">
          <mxGeometry x="410" y="245" width="110" height="30" as="geometry" />
        </mxCell>
        <mxCell id="DA-zJDTFARd0w5QgR1MB-118" value="Private&lt;br&gt;UAT Workspace" style="text;html=1;strokeColor=none;fillColor=none;align=left;verticalAlign=middle;whiteSpace=wrap;rounded=0;" parent="1" vertex="1">
          <mxGeometry x="410" y="365" width="110" height="30" as="geometry" />
        </mxCell>
        <mxCell id="DA-zJDTFARd0w5QgR1MB-119" value="Private&lt;br&gt;PROD Workspace" style="text;html=1;strokeColor=none;fillColor=none;align=left;verticalAlign=middle;whiteSpace=wrap;rounded=0;" parent="1" vertex="1">
          <mxGeometry x="410" y="425" width="110" height="30" as="geometry" />
        </mxCell>
        <mxCell id="DA-zJDTFARd0w5QgR1MB-121" value="" style="endArrow=classic;startArrow=classic;html=1;rounded=0;exitX=1;exitY=0.5;exitDx=0;exitDy=0;" parent="1" source="DA-zJDTFARd0w5QgR1MB-96" edge="1">
          <mxGeometry width="50" height="50" relative="1" as="geometry">
            <mxPoint x="260" y="139.5" as="sourcePoint" />
            <mxPoint x="340" y="139.5" as="targetPoint" />
          </mxGeometry>
        </mxCell>
        <mxCell id="DA-zJDTFARd0w5QgR1MB-122" value="" style="endArrow=classic;startArrow=classic;html=1;rounded=0;exitX=1;exitY=0.5;exitDx=0;exitDy=0;" parent="1" edge="1">
          <mxGeometry width="50" height="50" relative="1" as="geometry">
            <mxPoint x="220" y="200" as="sourcePoint" />
            <mxPoint x="340" y="199.5" as="targetPoint" />
          </mxGeometry>
        </mxCell>
        <mxCell id="DA-zJDTFARd0w5QgR1MB-123" value="" style="endArrow=classic;startArrow=classic;html=1;rounded=0;exitX=1;exitY=0.5;exitDx=0;exitDy=0;" parent="1" edge="1">
          <mxGeometry width="50" height="50" relative="1" as="geometry">
            <mxPoint x="220" y="260.5" as="sourcePoint" />
            <mxPoint x="340" y="260" as="targetPoint" />
          </mxGeometry>
        </mxCell>
        <mxCell id="DA-zJDTFARd0w5QgR1MB-125" value="" style="endArrow=classic;startArrow=classic;html=1;rounded=0;exitX=1;exitY=0.5;exitDx=0;exitDy=0;" parent="1" edge="1">
          <mxGeometry width="50" height="50" relative="1" as="geometry">
            <mxPoint x="220" y="380" as="sourcePoint" />
            <mxPoint x="340" y="379.5" as="targetPoint" />
          </mxGeometry>
        </mxCell>
        <mxCell id="DA-zJDTFARd0w5QgR1MB-126" value="" style="endArrow=classic;startArrow=classic;html=1;rounded=0;exitX=1;exitY=0.5;exitDx=0;exitDy=0;" parent="1" edge="1">
          <mxGeometry width="50" height="50" relative="1" as="geometry">
            <mxPoint x="220" y="440" as="sourcePoint" />
            <mxPoint x="340" y="439.5" as="targetPoint" />
          </mxGeometry>
        </mxCell>
        <mxCell id="DA-zJDTFARd0w5QgR1MB-128" value="Snowflake Subscription" style="text;strokeColor=none;fillColor=none;html=1;fontSize=14;fontStyle=1;verticalAlign=top;align=left;spacingLeft=6;" parent="1" vertex="1">
          <mxGeometry x="590" y="40" width="160" height="40" as="geometry" />
        </mxCell>
        <mxCell id="DA-zJDTFARd0w5QgR1MB-130" value="" style="shape=image;verticalLabelPosition=bottom;labelBackgroundColor=default;verticalAlign=top;aspect=fixed;imageAspect=0;image=data:image/svg+xml,PHN2ZyB4bWxucz0iaHR0cDovL3d3dy53My5vcmcvMjAwMC9zdmciIHZpZXdCb3g9IjAgMCAxNDYuMzYgMTM5LjE2IiBkYXRhLW5hbWU9IkxheWVyIDEiIGlkPSJMYXllcl8xIj48ZGVmcz48c3R5bGU+LmNscy0xe2ZpbGw6IzI5YjVlODtmaWxsLXJ1bGU6ZXZlbm9kZDt9PC9zdHlsZT48L2RlZnM+PHBhdGggZD0iTTEzNC44MSw2MC4xbC0xNi40Nyw5LjQ5TDEzNC44MSw3OWE4LjY1LDguNjUsMCwxLDEtOC42NywxNWwtMjkuNTEtMTdhOC42OCw4LjY4LDAsMCwxLTQuMzMtNy43NSw4LjQ4LDguNDgsMCwwLDEsLjMxLTIsOC42OCw4LjY4LDAsMCwxLDQtNS4xOWwyOS41MS0xNi45NEE4LjY5LDguNjksMCwwLDEsMTM4LDQ4LjMxLDguNTgsOC41OCwwLDAsMSwxMzQuODEsNjAuMVptLTE1LjU5LDQ2TDg5LjcyLDg5LjEzYTguNzIsOC43MiwwLDAsMC0xMy4wNiw3LjQ4djMzLjlhOC42OSw4LjY5LDAsMCwwLDE3LjM3LDB2LTE5TDExMC41NCwxMjFhOC42Niw4LjY2LDAsMSwwLDguNjgtMTVabS0zNC0zMy4xNkw3Mi45Miw4NS4wOWEyLjQ0LDIuNDQsMCwwLDEtMS41NC42NUg2Ny43N2EyLjUxLDIuNTEsMCwwLDEtMS41NC0uNjVMNTQsNzIuOWEyLjQ1LDIuNDUsMCwwLDEtLjY0LTEuNTJ2LTMuNkEyLjUsMi41LDAsMCwxLDU0LDY2LjI1TDY2LjIzLDU0LjA2YTIuNSwyLjUsMCwwLDEsMS41NC0uNjRoMy42MWEyLjQ1LDIuNDUsMCwwLDEsMS41NC42NEw4NS4xOCw2Ni4yNWEyLjQ5LDIuNDksMCwwLDEsLjYzLDEuNTN2My42QTIuNDQsMi40NCwwLDAsMSw4NS4xOCw3Mi45Wm0tOS44LTMuMzhBMi41OSwyLjU5LDAsMCwwLDc0LjczLDY4bC0zLjU1LTMuNTFhMi41MSwyLjUxLDAsMCwwLTEuNTQtLjY0aC0uMTNhMi40NiwyLjQ2LDAsMCwwLTEuNTMuNjRMNjQuNDMsNjhhMi41MSwyLjUxLDAsMCwwLS42MywxLjU1di4xM2EyLjQxLDIuNDEsMCwwLDAsLjYzLDEuNTJMNjgsNzQuN2EyLjQ4LDIuNDgsMCwwLDAsMS41My42NGguMTNhMi41MSwyLjUxLDAsMCwwLDEuNTQtLjY0bDMuNTUtMy41M2EyLjQ5LDIuNDksMCwwLDAsLjY1LTEuNTJaTTE5LjkzLDMzLjA4LDQ5LjQ0LDUwYTguNzMsOC43MywwLDAsMCwxMy4wNy03LjQ5VjguNjRhOC42OSw4LjY5LDAsMCwwLTE3LjM3LDB2MTlsLTE2LjUzLTkuNWE4LjY1LDguNjUsMCwxLDAtOC42OCwxNVpNODQuNjksNTEuMTZhOC42NCw4LjY0LDAsMCwwLDUtMS4xM2wyOS41LTE3YTguNjUsOC42NSwwLDEsMC04LjY4LTE1TDk0LDI3LjYxdi0xOWE4LjY5LDguNjksMCwwLDAtMTcuMzcsMHYzMy45QTguNjYsOC42NiwwLDAsMCw4NC42OSw1MS4xNlpNNTQuNDgsODhhOC41OCw4LjU4LDAsMCwwLTUsMS4xM0wxOS45MywxMDYuMDZhOC42Niw4LjY2LDAsMSwwLDguNjgsMTVsMTYuNTMtOS40OXYxOWE4LjY5LDguNjksMCwwLDAsMTcuMzcsMFY5Ni42MUE4LjY1LDguNjUsMCwwLDAsNTQuNDgsODhabS04LTE1Ljg3YTguNjEsOC42MSwwLDAsMC00LTEwTDEzLDQ1LjE0QTguNjksOC42OSwwLDAsMCwxLjE3LDQ4LjMxLDguNTksOC41OSwwLDAsMCw0LjM1LDYwLjFsMTYuNDcsOS40OUw0LjM1LDc5QTguNjUsOC42NSwwLDEsMCwxMyw5NGwyOS40OC0xN0E4LjU5LDguNTksMCwwLDAsNDYuNDcsNzIuMTNabTkzLjE1LTU2LjIySDEzOC4zdjEuNjNoMS4zMmMuNjEsMCwxLS4yOCwxLS44UzE0MC4yNiwxNS45MSwxMzkuNjIsMTUuOTFabS0yLjk0LTEuNWgzYzEuNjIsMCwyLjcuODksMi43LDIuMjdhMi4xNiwyLjE2LDAsMCwxLTEuMDgsMS45bDEuMTcsMS42OHYuMzRoLTEuNjlMMTM5LjYyLDE5SDEzOC4zVjIwLjZoLTEuNjJabTguMywzLjIyYTUuNDgsNS40OCwwLDAsMC01LjU4LTUuODNjLTMuMzEsMC01LjUxLDIuMzktNS41MSw1LjgzLDAsMy4yOCwyLjIsNS44Miw1LjUxLDUuODJBNS40Nyw1LjQ3LDAsMCwwLDE0NSwxNy42M1ptMS4zOCwwYzAsMy44OS0yLjYsNy4xNC03LDcuMTRzLTYuODktMy4yOC02Ljg5LTcuMTQsMi41Ny03LjE0LDYuODktNy4xNFMxNDYuMzYsMTMuNzMsMTQ2LjM2LDE3LjYzWiIgY2xhc3M9ImNscy0xIi8+PC9zdmc+;" parent="1" vertex="1">
          <mxGeometry x="629.9949999999999" y="120" width="42.01" height="40" as="geometry" />
        </mxCell>
        <mxCell id="DA-zJDTFARd0w5QgR1MB-133" value="" style="shape=image;verticalLabelPosition=bottom;labelBackgroundColor=default;verticalAlign=top;aspect=fixed;imageAspect=0;image=data:image/svg+xml,PHN2ZyB4bWxucz0iaHR0cDovL3d3dy53My5vcmcvMjAwMC9zdmciIHZpZXdCb3g9IjAgMCAxNDYuMzYgMTM5LjE2Ij48ZGVmcz48c3R5bGU+LmNscy0xe2ZpbGw6IzI5YjVlODt9LmNscy0ye2ZpbGw6I2ZmZjtmaWxsLXJ1bGU6ZXZlbm9kZDt9PC9zdHlsZT48L2RlZnM+PGcgaWQ9IkJhY2tncm91bmQiPjxyZWN0IGhlaWdodD0iMTM5LjE2IiB3aWR0aD0iMTQ2LjM2IiBjbGFzcz0iY2xzLTEiLz48L2c+PGcgZGF0YS1uYW1lPSJMYXllciAxIiBpZD0iTGF5ZXJfMSI+PHBhdGggZD0iTTEzNC44MSw2MC4xbC0xNi40Nyw5LjQ5TDEzNC44MSw3OWE4LjY1LDguNjUsMCwxLDEtOC42NywxNWwtMjkuNTEtMTdhOC42OCw4LjY4LDAsMCwxLTQuMzMtNy43NSw4LjQ4LDguNDgsMCwwLDEsLjMxLTIsOC42OCw4LjY4LDAsMCwxLDQtNS4xOWwyOS41MS0xNi45NEE4LjY5LDguNjksMCwwLDEsMTM4LDQ4LjMxLDguNTgsOC41OCwwLDAsMSwxMzQuODEsNjAuMVptLTE1LjU5LDQ2TDg5LjcyLDg5LjEzYTguNzIsOC43MiwwLDAsMC0xMy4wNiw3LjQ4djMzLjlhOC42OSw4LjY5LDAsMCwwLDE3LjM3LDB2LTE5TDExMC41NCwxMjFhOC42Niw4LjY2LDAsMSwwLDguNjgtMTVabS0zNC0zMy4xNkw3Mi45Miw4NS4wOWEyLjQ0LDIuNDQsMCwwLDEtMS41NC42NUg2Ny43N2EyLjUxLDIuNTEsMCwwLDEtMS41NC0uNjVMNTQsNzIuOWEyLjQ1LDIuNDUsMCwwLDEtLjY0LTEuNTJ2LTMuNkEyLjUsMi41LDAsMCwxLDU0LDY2LjI1TDY2LjIzLDU0LjA2YTIuNSwyLjUsMCwwLDEsMS41NC0uNjRoMy42MWEyLjQ1LDIuNDUsMCwwLDEsMS41NC42NEw4NS4xOCw2Ni4yNWEyLjQ5LDIuNDksMCwwLDEsLjYzLDEuNTN2My42QTIuNDQsMi40NCwwLDAsMSw4NS4xOCw3Mi45Wm0tOS44LTMuMzhBMi41OSwyLjU5LDAsMCwwLDc0LjczLDY4bC0zLjU1LTMuNTFhMi41MSwyLjUxLDAsMCwwLTEuNTQtLjY0aC0uMTNhMi40NiwyLjQ2LDAsMCwwLTEuNTMuNjRMNjQuNDMsNjhhMi41MSwyLjUxLDAsMCwwLS42MywxLjU1di4xM2EyLjQxLDIuNDEsMCwwLDAsLjYzLDEuNTJMNjgsNzQuN2EyLjQ4LDIuNDgsMCwwLDAsMS41My42NGguMTNhMi41MSwyLjUxLDAsMCwwLDEuNTQtLjY0bDMuNTUtMy41M2EyLjQ5LDIuNDksMCwwLDAsLjY1LTEuNTJaTTE5LjkzLDMzLjA4LDQ5LjQ0LDUwYTguNzMsOC43MywwLDAsMCwxMy4wNy03LjQ5VjguNjRhOC42OSw4LjY5LDAsMCwwLTE3LjM3LDB2MTlsLTE2LjUzLTkuNWE4LjY1LDguNjUsMCwxLDAtOC42OCwxNVpNODQuNjksNTEuMTZhOC42NCw4LjY0LDAsMCwwLDUtMS4xM2wyOS41LTE3YTguNjUsOC42NSwwLDEsMC04LjY4LTE1TDk0LDI3LjYxdi0xOWE4LjY5LDguNjksMCwwLDAtMTcuMzcsMHYzMy45QTguNjYsOC42NiwwLDAsMCw4NC42OSw1MS4xNlpNNTQuNDgsODhhOC41OCw4LjU4LDAsMCwwLTUsMS4xM0wxOS45MywxMDYuMDZhOC42Niw4LjY2LDAsMSwwLDguNjgsMTVsMTYuNTMtOS40OXYxOWE4LjY5LDguNjksMCwwLDAsMTcuMzcsMFY5Ni42MUE4LjY1LDguNjUsMCwwLDAsNTQuNDgsODhabS04LTE1Ljg3YTguNjEsOC42MSwwLDAsMC00LTEwTDEzLDQ1LjE0QTguNjksOC42OSwwLDAsMCwxLjE3LDQ4LjMxLDguNTksOC41OSwwLDAsMCw0LjM1LDYwLjFsMTYuNDcsOS40OUw0LjM1LDc5QTguNjUsOC42NSwwLDEsMCwxMyw5NGwyOS40OC0xN0E4LjU5LDguNTksMCwwLDAsNDYuNDcsNzIuMTNabTkzLjE1LTU2LjIySDEzOC4zdjEuNjNoMS4zMmMuNjEsMCwxLS4yOCwxLS44UzE0MC4yNiwxNS45MSwxMzkuNjIsMTUuOTFabS0yLjk0LTEuNWgzYzEuNjIsMCwyLjcuODksMi43LDIuMjdhMi4xNiwyLjE2LDAsMCwxLTEuMDgsMS45bDEuMTcsMS42OHYuMzRoLTEuNjlMMTM5LjYyLDE5SDEzOC4zVjIwLjZoLTEuNjJabTguMywzLjIyYTUuNDgsNS40OCwwLDAsMC01LjU4LTUuODNjLTMuMzEsMC01LjUxLDIuMzktNS41MSw1LjgzLDAsMy4yOCwyLjIsNS44Miw1LjUxLDUuODJBNS40Nyw1LjQ3LDAsMCwwLDE0NSwxNy42M1ptMS4zOCwwYzAsMy44OS0yLjYsNy4xNC03LDcuMTRzLTYuODktMy4yOC02Ljg5LTcuMTQsMi41Ny03LjE0LDYuODktNy4xNFMxNDYuMzYsMTMuNzMsMTQ2LjM2LDE3LjYzWiIgY2xhc3M9ImNscy0yIi8+PC9nPjwvc3ZnPg==;movable=1;resizable=1;rotatable=1;deletable=1;editable=1;locked=0;connectable=1;" parent="1" vertex="1">
          <mxGeometry x="610" y="80" width="26.25" height="25" as="geometry" />
        </mxCell>
        <mxCell id="DA-zJDTFARd0w5QgR1MB-134" value="B-Flexion Account Ireland Region" style="text;html=1;strokeColor=none;fillColor=none;align=left;verticalAlign=middle;whiteSpace=wrap;rounded=0;fontSize=11;fontColor=#648D99;" parent="1" vertex="1">
          <mxGeometry x="643" y="77.5" width="187" height="30" as="geometry" />
        </mxCell>
        <mxCell id="DA-zJDTFARd0w5QgR1MB-135" value="B-Flexion&lt;br&gt;DEV Databases" style="text;html=1;strokeColor=none;fillColor=none;align=left;verticalAlign=middle;whiteSpace=wrap;rounded=0;fontColor=#336600;" parent="1" vertex="1">
          <mxGeometry x="680" y="125" width="120" height="30" as="geometry" />
        </mxCell>
        <mxCell id="DA-zJDTFARd0w5QgR1MB-136" value="" style="shape=image;verticalLabelPosition=bottom;labelBackgroundColor=default;verticalAlign=top;aspect=fixed;imageAspect=0;image=data:image/svg+xml,PHN2ZyB4bWxucz0iaHR0cDovL3d3dy53My5vcmcvMjAwMC9zdmciIHZpZXdCb3g9IjAgMCAxNDYuMzYgMTM5LjE2IiBkYXRhLW5hbWU9IkxheWVyIDEiIGlkPSJMYXllcl8xIj48ZGVmcz48c3R5bGU+LmNscy0xe2ZpbGw6IzI5YjVlODtmaWxsLXJ1bGU6ZXZlbm9kZDt9PC9zdHlsZT48L2RlZnM+PHBhdGggZD0iTTEzNC44MSw2MC4xbC0xNi40Nyw5LjQ5TDEzNC44MSw3OWE4LjY1LDguNjUsMCwxLDEtOC42NywxNWwtMjkuNTEtMTdhOC42OCw4LjY4LDAsMCwxLTQuMzMtNy43NSw4LjQ4LDguNDgsMCwwLDEsLjMxLTIsOC42OCw4LjY4LDAsMCwxLDQtNS4xOWwyOS41MS0xNi45NEE4LjY5LDguNjksMCwwLDEsMTM4LDQ4LjMxLDguNTgsOC41OCwwLDAsMSwxMzQuODEsNjAuMVptLTE1LjU5LDQ2TDg5LjcyLDg5LjEzYTguNzIsOC43MiwwLDAsMC0xMy4wNiw3LjQ4djMzLjlhOC42OSw4LjY5LDAsMCwwLDE3LjM3LDB2LTE5TDExMC41NCwxMjFhOC42Niw4LjY2LDAsMSwwLDguNjgtMTVabS0zNC0zMy4xNkw3Mi45Miw4NS4wOWEyLjQ0LDIuNDQsMCwwLDEtMS41NC42NUg2Ny43N2EyLjUxLDIuNTEsMCwwLDEtMS41NC0uNjVMNTQsNzIuOWEyLjQ1LDIuNDUsMCwwLDEtLjY0LTEuNTJ2LTMuNkEyLjUsMi41LDAsMCwxLDU0LDY2LjI1TDY2LjIzLDU0LjA2YTIuNSwyLjUsMCwwLDEsMS41NC0uNjRoMy42MWEyLjQ1LDIuNDUsMCwwLDEsMS41NC42NEw4NS4xOCw2Ni4yNWEyLjQ5LDIuNDksMCwwLDEsLjYzLDEuNTN2My42QTIuNDQsMi40NCwwLDAsMSw4NS4xOCw3Mi45Wm0tOS44LTMuMzhBMi41OSwyLjU5LDAsMCwwLDc0LjczLDY4bC0zLjU1LTMuNTFhMi41MSwyLjUxLDAsMCwwLTEuNTQtLjY0aC0uMTNhMi40NiwyLjQ2LDAsMCwwLTEuNTMuNjRMNjQuNDMsNjhhMi41MSwyLjUxLDAsMCwwLS42MywxLjU1di4xM2EyLjQxLDIuNDEsMCwwLDAsLjYzLDEuNTJMNjgsNzQuN2EyLjQ4LDIuNDgsMCwwLDAsMS41My42NGguMTNhMi41MSwyLjUxLDAsMCwwLDEuNTQtLjY0bDMuNTUtMy41M2EyLjQ5LDIuNDksMCwwLDAsLjY1LTEuNTJaTTE5LjkzLDMzLjA4LDQ5LjQ0LDUwYTguNzMsOC43MywwLDAsMCwxMy4wNy03LjQ5VjguNjRhOC42OSw4LjY5LDAsMCwwLTE3LjM3LDB2MTlsLTE2LjUzLTkuNWE4LjY1LDguNjUsMCwxLDAtOC42OCwxNVpNODQuNjksNTEuMTZhOC42NCw4LjY0LDAsMCwwLDUtMS4xM2wyOS41LTE3YTguNjUsOC42NSwwLDEsMC04LjY4LTE1TDk0LDI3LjYxdi0xOWE4LjY5LDguNjksMCwwLDAtMTcuMzcsMHYzMy45QTguNjYsOC42NiwwLDAsMCw4NC42OSw1MS4xNlpNNTQuNDgsODhhOC41OCw4LjU4LDAsMCwwLTUsMS4xM0wxOS45MywxMDYuMDZhOC42Niw4LjY2LDAsMSwwLDguNjgsMTVsMTYuNTMtOS40OXYxOWE4LjY5LDguNjksMCwwLDAsMTcuMzcsMFY5Ni42MUE4LjY1LDguNjUsMCwwLDAsNTQuNDgsODhabS04LTE1Ljg3YTguNjEsOC42MSwwLDAsMC00LTEwTDEzLDQ1LjE0QTguNjksOC42OSwwLDAsMCwxLjE3LDQ4LjMxLDguNTksOC41OSwwLDAsMCw0LjM1LDYwLjFsMTYuNDcsOS40OUw0LjM1LDc5QTguNjUsOC42NSwwLDEsMCwxMyw5NGwyOS40OC0xN0E4LjU5LDguNTksMCwwLDAsNDYuNDcsNzIuMTNabTkzLjE1LTU2LjIySDEzOC4zdjEuNjNoMS4zMmMuNjEsMCwxLS4yOCwxLS44UzE0MC4yNiwxNS45MSwxMzkuNjIsMTUuOTFabS0yLjk0LTEuNWgzYzEuNjIsMCwyLjcuODksMi43LDIuMjdhMi4xNiwyLjE2LDAsMCwxLTEuMDgsMS45bDEuMTcsMS42OHYuMzRoLTEuNjlMMTM5LjYyLDE5SDEzOC4zVjIwLjZoLTEuNjJabTguMywzLjIyYTUuNDgsNS40OCwwLDAsMC01LjU4LTUuODNjLTMuMzEsMC01LjUxLDIuMzktNS41MSw1LjgzLDAsMy4yOCwyLjIsNS44Miw1LjUxLDUuODJBNS40Nyw1LjQ3LDAsMCwwLDE0NSwxNy42M1ptMS4zOCwwYzAsMy44OS0yLjYsNy4xNC03LDcuMTRzLTYuODktMy4yOC02Ljg5LTcuMTQsMi41Ny03LjE0LDYuODktNy4xNFMxNDYuMzYsMTMuNzMsMTQ2LjM2LDE3LjYzWiIgY2xhc3M9ImNscy0xIi8+PC9zdmc+;" parent="1" vertex="1">
          <mxGeometry x="629.9949999999999" y="180" width="42.01" height="40" as="geometry" />
        </mxCell>
        <mxCell id="DA-zJDTFARd0w5QgR1MB-137" value="B-Flexion&lt;br&gt;UAT Databases" style="text;html=1;strokeColor=none;fillColor=none;align=left;verticalAlign=middle;whiteSpace=wrap;rounded=0;" parent="1" vertex="1">
          <mxGeometry x="680" y="185" width="130" height="30" as="geometry" />
        </mxCell>
        <mxCell id="DA-zJDTFARd0w5QgR1MB-138" value="" style="shape=image;verticalLabelPosition=bottom;labelBackgroundColor=default;verticalAlign=top;aspect=fixed;imageAspect=0;image=data:image/svg+xml,PHN2ZyB4bWxucz0iaHR0cDovL3d3dy53My5vcmcvMjAwMC9zdmciIHZpZXdCb3g9IjAgMCAxNDYuMzYgMTM5LjE2IiBkYXRhLW5hbWU9IkxheWVyIDEiIGlkPSJMYXllcl8xIj48ZGVmcz48c3R5bGU+LmNscy0xe2ZpbGw6IzI5YjVlODtmaWxsLXJ1bGU6ZXZlbm9kZDt9PC9zdHlsZT48L2RlZnM+PHBhdGggZD0iTTEzNC44MSw2MC4xbC0xNi40Nyw5LjQ5TDEzNC44MSw3OWE4LjY1LDguNjUsMCwxLDEtOC42NywxNWwtMjkuNTEtMTdhOC42OCw4LjY4LDAsMCwxLTQuMzMtNy43NSw4LjQ4LDguNDgsMCwwLDEsLjMxLTIsOC42OCw4LjY4LDAsMCwxLDQtNS4xOWwyOS41MS0xNi45NEE4LjY5LDguNjksMCwwLDEsMTM4LDQ4LjMxLDguNTgsOC41OCwwLDAsMSwxMzQuODEsNjAuMVptLTE1LjU5LDQ2TDg5LjcyLDg5LjEzYTguNzIsOC43MiwwLDAsMC0xMy4wNiw3LjQ4djMzLjlhOC42OSw4LjY5LDAsMCwwLDE3LjM3LDB2LTE5TDExMC41NCwxMjFhOC42Niw4LjY2LDAsMSwwLDguNjgtMTVabS0zNC0zMy4xNkw3Mi45Miw4NS4wOWEyLjQ0LDIuNDQsMCwwLDEtMS41NC42NUg2Ny43N2EyLjUxLDIuNTEsMCwwLDEtMS41NC0uNjVMNTQsNzIuOWEyLjQ1LDIuNDUsMCwwLDEtLjY0LTEuNTJ2LTMuNkEyLjUsMi41LDAsMCwxLDU0LDY2LjI1TDY2LjIzLDU0LjA2YTIuNSwyLjUsMCwwLDEsMS41NC0uNjRoMy42MWEyLjQ1LDIuNDUsMCwwLDEsMS41NC42NEw4NS4xOCw2Ni4yNWEyLjQ5LDIuNDksMCwwLDEsLjYzLDEuNTN2My42QTIuNDQsMi40NCwwLDAsMSw4NS4xOCw3Mi45Wm0tOS44LTMuMzhBMi41OSwyLjU5LDAsMCwwLDc0LjczLDY4bC0zLjU1LTMuNTFhMi41MSwyLjUxLDAsMCwwLTEuNTQtLjY0aC0uMTNhMi40NiwyLjQ2LDAsMCwwLTEuNTMuNjRMNjQuNDMsNjhhMi41MSwyLjUxLDAsMCwwLS42MywxLjU1di4xM2EyLjQxLDIuNDEsMCwwLDAsLjYzLDEuNTJMNjgsNzQuN2EyLjQ4LDIuNDgsMCwwLDAsMS41My42NGguMTNhMi41MSwyLjUxLDAsMCwwLDEuNTQtLjY0bDMuNTUtMy41M2EyLjQ5LDIuNDksMCwwLDAsLjY1LTEuNTJaTTE5LjkzLDMzLjA4LDQ5LjQ0LDUwYTguNzMsOC43MywwLDAsMCwxMy4wNy03LjQ5VjguNjRhOC42OSw4LjY5LDAsMCwwLTE3LjM3LDB2MTlsLTE2LjUzLTkuNWE4LjY1LDguNjUsMCwxLDAtOC42OCwxNVpNODQuNjksNTEuMTZhOC42NCw4LjY0LDAsMCwwLDUtMS4xM2wyOS41LTE3YTguNjUsOC42NSwwLDEsMC04LjY4LTE1TDk0LDI3LjYxdi0xOWE4LjY5LDguNjksMCwwLDAtMTcuMzcsMHYzMy45QTguNjYsOC42NiwwLDAsMCw4NC42OSw1MS4xNlpNNTQuNDgsODhhOC41OCw4LjU4LDAsMCwwLTUsMS4xM0wxOS45MywxMDYuMDZhOC42Niw4LjY2LDAsMSwwLDguNjgsMTVsMTYuNTMtOS40OXYxOWE4LjY5LDguNjksMCwwLDAsMTcuMzcsMFY5Ni42MUE4LjY1LDguNjUsMCwwLDAsNTQuNDgsODhabS04LTE1Ljg3YTguNjEsOC42MSwwLDAsMC00LTEwTDEzLDQ1LjE0QTguNjksOC42OSwwLDAsMCwxLjE3LDQ4LjMxLDguNTksOC41OSwwLDAsMCw0LjM1LDYwLjFsMTYuNDcsOS40OUw0LjM1LDc5QTguNjUsOC42NSwwLDEsMCwxMyw5NGwyOS40OC0xN0E4LjU5LDguNTksMCwwLDAsNDYuNDcsNzIuMTNabTkzLjE1LTU2LjIySDEzOC4zdjEuNjNoMS4zMmMuNjEsMCwxLS4yOCwxLS44UzE0MC4yNiwxNS45MSwxMzkuNjIsMTUuOTFabS0yLjk0LTEuNWgzYzEuNjIsMCwyLjcuODksMi43LDIuMjdhMi4xNiwyLjE2LDAsMCwxLTEuMDgsMS45bDEuMTcsMS42OHYuMzRoLTEuNjlMMTM5LjYyLDE5SDEzOC4zVjIwLjZoLTEuNjJabTguMywzLjIyYTUuNDgsNS40OCwwLDAsMC01LjU4LTUuODNjLTMuMzEsMC01LjUxLDIuMzktNS41MSw1LjgzLDAsMy4yOCwyLjIsNS44Miw1LjUxLDUuODJBNS40Nyw1LjQ3LDAsMCwwLDE0NSwxNy42M1ptMS4zOCwwYzAsMy44OS0yLjYsNy4xNC03LDcuMTRzLTYuODktMy4yOC02Ljg5LTcuMTQsMi41Ny03LjE0LDYuODktNy4xNFMxNDYuMzYsMTMuNzMsMTQ2LjM2LDE3LjYzWiIgY2xhc3M9ImNscy0xIi8+PC9zdmc+;" parent="1" vertex="1">
          <mxGeometry x="629.9949999999999" y="240" width="42.01" height="40" as="geometry" />
        </mxCell>
        <mxCell id="DA-zJDTFARd0w5QgR1MB-139" value="B-Flexion&lt;br&gt;PROD Databases" style="text;html=1;strokeColor=none;fillColor=none;align=left;verticalAlign=middle;whiteSpace=wrap;rounded=0;" parent="1" vertex="1">
          <mxGeometry x="680" y="245" width="120" height="30" as="geometry" />
        </mxCell>
        <mxCell id="DA-zJDTFARd0w5QgR1MB-140" value="" style="shape=image;verticalLabelPosition=bottom;labelBackgroundColor=default;verticalAlign=top;aspect=fixed;imageAspect=0;image=data:image/svg+xml,PHN2ZyB4bWxucz0iaHR0cDovL3d3dy53My5vcmcvMjAwMC9zdmciIHZpZXdCb3g9IjAgMCAxNDYuMzYgMTM5LjE2IiBkYXRhLW5hbWU9IkxheWVyIDEiIGlkPSJMYXllcl8xIj48ZGVmcz48c3R5bGU+LmNscy0xe2ZpbGw6IzI5YjVlODtmaWxsLXJ1bGU6ZXZlbm9kZDt9PC9zdHlsZT48L2RlZnM+PHBhdGggZD0iTTEzNC44MSw2MC4xbC0xNi40Nyw5LjQ5TDEzNC44MSw3OWE4LjY1LDguNjUsMCwxLDEtOC42NywxNWwtMjkuNTEtMTdhOC42OCw4LjY4LDAsMCwxLTQuMzMtNy43NSw4LjQ4LDguNDgsMCwwLDEsLjMxLTIsOC42OCw4LjY4LDAsMCwxLDQtNS4xOWwyOS41MS0xNi45NEE4LjY5LDguNjksMCwwLDEsMTM4LDQ4LjMxLDguNTgsOC41OCwwLDAsMSwxMzQuODEsNjAuMVptLTE1LjU5LDQ2TDg5LjcyLDg5LjEzYTguNzIsOC43MiwwLDAsMC0xMy4wNiw3LjQ4djMzLjlhOC42OSw4LjY5LDAsMCwwLDE3LjM3LDB2LTE5TDExMC41NCwxMjFhOC42Niw4LjY2LDAsMSwwLDguNjgtMTVabS0zNC0zMy4xNkw3Mi45Miw4NS4wOWEyLjQ0LDIuNDQsMCwwLDEtMS41NC42NUg2Ny43N2EyLjUxLDIuNTEsMCwwLDEtMS41NC0uNjVMNTQsNzIuOWEyLjQ1LDIuNDUsMCwwLDEtLjY0LTEuNTJ2LTMuNkEyLjUsMi41LDAsMCwxLDU0LDY2LjI1TDY2LjIzLDU0LjA2YTIuNSwyLjUsMCwwLDEsMS41NC0uNjRoMy42MWEyLjQ1LDIuNDUsMCwwLDEsMS41NC42NEw4NS4xOCw2Ni4yNWEyLjQ5LDIuNDksMCwwLDEsLjYzLDEuNTN2My42QTIuNDQsMi40NCwwLDAsMSw4NS4xOCw3Mi45Wm0tOS44LTMuMzhBMi41OSwyLjU5LDAsMCwwLDc0LjczLDY4bC0zLjU1LTMuNTFhMi41MSwyLjUxLDAsMCwwLTEuNTQtLjY0aC0uMTNhMi40NiwyLjQ2LDAsMCwwLTEuNTMuNjRMNjQuNDMsNjhhMi41MSwyLjUxLDAsMCwwLS42MywxLjU1di4xM2EyLjQxLDIuNDEsMCwwLDAsLjYzLDEuNTJMNjgsNzQuN2EyLjQ4LDIuNDgsMCwwLDAsMS41My42NGguMTNhMi41MSwyLjUxLDAsMCwwLDEuNTQtLjY0bDMuNTUtMy41M2EyLjQ5LDIuNDksMCwwLDAsLjY1LTEuNTJaTTE5LjkzLDMzLjA4LDQ5LjQ0LDUwYTguNzMsOC43MywwLDAsMCwxMy4wNy03LjQ5VjguNjRhOC42OSw4LjY5LDAsMCwwLTE3LjM3LDB2MTlsLTE2LjUzLTkuNWE4LjY1LDguNjUsMCwxLDAtOC42OCwxNVpNODQuNjksNTEuMTZhOC42NCw4LjY0LDAsMCwwLDUtMS4xM2wyOS41LTE3YTguNjUsOC42NSwwLDEsMC04LjY4LTE1TDk0LDI3LjYxdi0xOWE4LjY5LDguNjksMCwwLDAtMTcuMzcsMHYzMy45QTguNjYsOC42NiwwLDAsMCw4NC42OSw1MS4xNlpNNTQuNDgsODhhOC41OCw4LjU4LDAsMCwwLTUsMS4xM0wxOS45MywxMDYuMDZhOC42Niw4LjY2LDAsMSwwLDguNjgsMTVsMTYuNTMtOS40OXYxOWE4LjY5LDguNjksMCwwLDAsMTcuMzcsMFY5Ni42MUE4LjY1LDguNjUsMCwwLDAsNTQuNDgsODhabS04LTE1Ljg3YTguNjEsOC42MSwwLDAsMC00LTEwTDEzLDQ1LjE0QTguNjksOC42OSwwLDAsMCwxLjE3LDQ4LjMxLDguNTksOC41OSwwLDAsMCw0LjM1LDYwLjFsMTYuNDcsOS40OUw0LjM1LDc5QTguNjUsOC42NSwwLDEsMCwxMyw5NGwyOS40OC0xN0E4LjU5LDguNTksMCwwLDAsNDYuNDcsNzIuMTNabTkzLjE1LTU2LjIySDEzOC4zdjEuNjNoMS4zMmMuNjEsMCwxLS4yOCwxLS44UzE0MC4yNiwxNS45MSwxMzkuNjIsMTUuOTFabS0yLjk0LTEuNWgzYzEuNjIsMCwyLjcuODksMi43LDIuMjdhMi4xNiwyLjE2LDAsMCwxLTEuMDgsMS45bDEuMTcsMS42OHYuMzRoLTEuNjlMMTM5LjYyLDE5SDEzOC4zVjIwLjZoLTEuNjJabTguMywzLjIyYTUuNDgsNS40OCwwLDAsMC01LjU4LTUuODNjLTMuMzEsMC01LjUxLDIuMzktNS41MSw1LjgzLDAsMy4yOCwyLjIsNS44Miw1LjUxLDUuODJBNS40Nyw1LjQ3LDAsMCwwLDE0NSwxNy42M1ptMS4zOCwwYzAsMy44OS0yLjYsNy4xNC03LDcuMTRzLTYuODktMy4yOC02Ljg5LTcuMTQsMi41Ny03LjE0LDYuODktNy4xNFMxNDYuMzYsMTMuNzMsMTQ2LjM2LDE3LjYzWiIgY2xhc3M9ImNscy0xIi8+PC9zdmc+;" parent="1" vertex="1">
          <mxGeometry x="629.9949999999999" y="360" width="42.01" height="40" as="geometry" />
        </mxCell>
        <mxCell id="DA-zJDTFARd0w5QgR1MB-145" value="" style="rounded=0;whiteSpace=wrap;html=1;fillColor=none;strokeColor=#A0E3F6;dashed=1;strokeWidth=2;" parent="1" vertex="1">
          <mxGeometry x="610" y="322.5" width="220" height="157.5" as="geometry" />
        </mxCell>
        <mxCell id="DA-zJDTFARd0w5QgR1MB-141" value="Private&lt;br&gt;UAT Databases" style="text;html=1;strokeColor=none;fillColor=none;align=left;verticalAlign=middle;whiteSpace=wrap;rounded=0;" parent="1" vertex="1">
          <mxGeometry x="680" y="365" width="90" height="30" as="geometry" />
        </mxCell>
        <mxCell id="DA-zJDTFARd0w5QgR1MB-142" value="" style="shape=image;verticalLabelPosition=bottom;labelBackgroundColor=default;verticalAlign=top;aspect=fixed;imageAspect=0;image=data:image/svg+xml,PHN2ZyB4bWxucz0iaHR0cDovL3d3dy53My5vcmcvMjAwMC9zdmciIHZpZXdCb3g9IjAgMCAxNDYuMzYgMTM5LjE2IiBkYXRhLW5hbWU9IkxheWVyIDEiIGlkPSJMYXllcl8xIj48ZGVmcz48c3R5bGU+LmNscy0xe2ZpbGw6IzI5YjVlODtmaWxsLXJ1bGU6ZXZlbm9kZDt9PC9zdHlsZT48L2RlZnM+PHBhdGggZD0iTTEzNC44MSw2MC4xbC0xNi40Nyw5LjQ5TDEzNC44MSw3OWE4LjY1LDguNjUsMCwxLDEtOC42NywxNWwtMjkuNTEtMTdhOC42OCw4LjY4LDAsMCwxLTQuMzMtNy43NSw4LjQ4LDguNDgsMCwwLDEsLjMxLTIsOC42OCw4LjY4LDAsMCwxLDQtNS4xOWwyOS41MS0xNi45NEE4LjY5LDguNjksMCwwLDEsMTM4LDQ4LjMxLDguNTgsOC41OCwwLDAsMSwxMzQuODEsNjAuMVptLTE1LjU5LDQ2TDg5LjcyLDg5LjEzYTguNzIsOC43MiwwLDAsMC0xMy4wNiw3LjQ4djMzLjlhOC42OSw4LjY5LDAsMCwwLDE3LjM3LDB2LTE5TDExMC41NCwxMjFhOC42Niw4LjY2LDAsMSwwLDguNjgtMTVabS0zNC0zMy4xNkw3Mi45Miw4NS4wOWEyLjQ0LDIuNDQsMCwwLDEtMS41NC42NUg2Ny43N2EyLjUxLDIuNTEsMCwwLDEtMS41NC0uNjVMNTQsNzIuOWEyLjQ1LDIuNDUsMCwwLDEtLjY0LTEuNTJ2LTMuNkEyLjUsMi41LDAsMCwxLDU0LDY2LjI1TDY2LjIzLDU0LjA2YTIuNSwyLjUsMCwwLDEsMS41NC0uNjRoMy42MWEyLjQ1LDIuNDUsMCwwLDEsMS41NC42NEw4NS4xOCw2Ni4yNWEyLjQ5LDIuNDksMCwwLDEsLjYzLDEuNTN2My42QTIuNDQsMi40NCwwLDAsMSw4NS4xOCw3Mi45Wm0tOS44LTMuMzhBMi41OSwyLjU5LDAsMCwwLDc0LjczLDY4bC0zLjU1LTMuNTFhMi41MSwyLjUxLDAsMCwwLTEuNTQtLjY0aC0uMTNhMi40NiwyLjQ2LDAsMCwwLTEuNTMuNjRMNjQuNDMsNjhhMi41MSwyLjUxLDAsMCwwLS42MywxLjU1di4xM2EyLjQxLDIuNDEsMCwwLDAsLjYzLDEuNTJMNjgsNzQuN2EyLjQ4LDIuNDgsMCwwLDAsMS41My42NGguMTNhMi41MSwyLjUxLDAsMCwwLDEuNTQtLjY0bDMuNTUtMy41M2EyLjQ5LDIuNDksMCwwLDAsLjY1LTEuNTJaTTE5LjkzLDMzLjA4LDQ5LjQ0LDUwYTguNzMsOC43MywwLDAsMCwxMy4wNy03LjQ5VjguNjRhOC42OSw4LjY5LDAsMCwwLTE3LjM3LDB2MTlsLTE2LjUzLTkuNWE4LjY1LDguNjUsMCwxLDAtOC42OCwxNVpNODQuNjksNTEuMTZhOC42NCw4LjY0LDAsMCwwLDUtMS4xM2wyOS41LTE3YTguNjUsOC42NSwwLDEsMC04LjY4LTE1TDk0LDI3LjYxdi0xOWE4LjY5LDguNjksMCwwLDAtMTcuMzcsMHYzMy45QTguNjYsOC42NiwwLDAsMCw4NC42OSw1MS4xNlpNNTQuNDgsODhhOC41OCw4LjU4LDAsMCwwLTUsMS4xM0wxOS45MywxMDYuMDZhOC42Niw4LjY2LDAsMSwwLDguNjgsMTVsMTYuNTMtOS40OXYxOWE4LjY5LDguNjksMCwwLDAsMTcuMzcsMFY5Ni42MUE4LjY1LDguNjUsMCwwLDAsNTQuNDgsODhabS04LTE1Ljg3YTguNjEsOC42MSwwLDAsMC00LTEwTDEzLDQ1LjE0QTguNjksOC42OSwwLDAsMCwxLjE3LDQ4LjMxLDguNTksOC41OSwwLDAsMCw0LjM1LDYwLjFsMTYuNDcsOS40OUw0LjM1LDc5QTguNjUsOC42NSwwLDEsMCwxMyw5NGwyOS40OC0xN0E4LjU5LDguNTksMCwwLDAsNDYuNDcsNzIuMTNabTkzLjE1LTU2LjIySDEzOC4zdjEuNjNoMS4zMmMuNjEsMCwxLS4yOCwxLS44UzE0MC4yNiwxNS45MSwxMzkuNjIsMTUuOTFabS0yLjk0LTEuNWgzYzEuNjIsMCwyLjcuODksMi43LDIuMjdhMi4xNiwyLjE2LDAsMCwxLTEuMDgsMS45bDEuMTcsMS42OHYuMzRoLTEuNjlMMTM5LjYyLDE5SDEzOC4zVjIwLjZoLTEuNjJabTguMywzLjIyYTUuNDgsNS40OCwwLDAsMC01LjU4LTUuODNjLTMuMzEsMC01LjUxLDIuMzktNS41MSw1LjgzLDAsMy4yOCwyLjIsNS44Miw1LjUxLDUuODJBNS40Nyw1LjQ3LDAsMCwwLDE0NSwxNy42M1ptMS4zOCwwYzAsMy44OS0yLjYsNy4xNC03LDcuMTRzLTYuODktMy4yOC02Ljg5LTcuMTQsMi41Ny03LjE0LDYuODktNy4xNFMxNDYuMzYsMTMuNzMsMTQ2LjM2LDE3LjYzWiIgY2xhc3M9ImNscy0xIi8+PC9zdmc+;" parent="1" vertex="1">
          <mxGeometry x="629.9949999999999" y="420" width="42.01" height="40" as="geometry" />
        </mxCell>
        <mxCell id="DA-zJDTFARd0w5QgR1MB-143" value="Private&lt;br&gt;PROD Databases" style="text;html=1;strokeColor=none;fillColor=none;align=left;verticalAlign=middle;whiteSpace=wrap;rounded=0;" parent="1" vertex="1">
          <mxGeometry x="680" y="425" width="110" height="30" as="geometry" />
        </mxCell>
        <mxCell id="DA-zJDTFARd0w5QgR1MB-146" value="" style="shape=image;verticalLabelPosition=bottom;labelBackgroundColor=default;verticalAlign=top;aspect=fixed;imageAspect=0;image=data:image/svg+xml,PHN2ZyB4bWxucz0iaHR0cDovL3d3dy53My5vcmcvMjAwMC9zdmciIHZpZXdCb3g9IjAgMCAxNDYuMzYgMTM5LjE2Ij48ZGVmcz48c3R5bGU+LmNscy0xe2ZpbGw6IzI5YjVlODt9LmNscy0ye2ZpbGw6I2ZmZjtmaWxsLXJ1bGU6ZXZlbm9kZDt9PC9zdHlsZT48L2RlZnM+PGcgaWQ9IkJhY2tncm91bmQiPjxyZWN0IGhlaWdodD0iMTM5LjE2IiB3aWR0aD0iMTQ2LjM2IiBjbGFzcz0iY2xzLTEiLz48L2c+PGcgZGF0YS1uYW1lPSJMYXllciAxIiBpZD0iTGF5ZXJfMSI+PHBhdGggZD0iTTEzNC44MSw2MC4xbC0xNi40Nyw5LjQ5TDEzNC44MSw3OWE4LjY1LDguNjUsMCwxLDEtOC42NywxNWwtMjkuNTEtMTdhOC42OCw4LjY4LDAsMCwxLTQuMzMtNy43NSw4LjQ4LDguNDgsMCwwLDEsLjMxLTIsOC42OCw4LjY4LDAsMCwxLDQtNS4xOWwyOS41MS0xNi45NEE4LjY5LDguNjksMCwwLDEsMTM4LDQ4LjMxLDguNTgsOC41OCwwLDAsMSwxMzQuODEsNjAuMVptLTE1LjU5LDQ2TDg5LjcyLDg5LjEzYTguNzIsOC43MiwwLDAsMC0xMy4wNiw3LjQ4djMzLjlhOC42OSw4LjY5LDAsMCwwLDE3LjM3LDB2LTE5TDExMC41NCwxMjFhOC42Niw4LjY2LDAsMSwwLDguNjgtMTVabS0zNC0zMy4xNkw3Mi45Miw4NS4wOWEyLjQ0LDIuNDQsMCwwLDEtMS41NC42NUg2Ny43N2EyLjUxLDIuNTEsMCwwLDEtMS41NC0uNjVMNTQsNzIuOWEyLjQ1LDIuNDUsMCwwLDEtLjY0LTEuNTJ2LTMuNkEyLjUsMi41LDAsMCwxLDU0LDY2LjI1TDY2LjIzLDU0LjA2YTIuNSwyLjUsMCwwLDEsMS41NC0uNjRoMy42MWEyLjQ1LDIuNDUsMCwwLDEsMS41NC42NEw4NS4xOCw2Ni4yNWEyLjQ5LDIuNDksMCwwLDEsLjYzLDEuNTN2My42QTIuNDQsMi40NCwwLDAsMSw4NS4xOCw3Mi45Wm0tOS44LTMuMzhBMi41OSwyLjU5LDAsMCwwLDc0LjczLDY4bC0zLjU1LTMuNTFhMi41MSwyLjUxLDAsMCwwLTEuNTQtLjY0aC0uMTNhMi40NiwyLjQ2LDAsMCwwLTEuNTMuNjRMNjQuNDMsNjhhMi41MSwyLjUxLDAsMCwwLS42MywxLjU1di4xM2EyLjQxLDIuNDEsMCwwLDAsLjYzLDEuNTJMNjgsNzQuN2EyLjQ4LDIuNDgsMCwwLDAsMS41My42NGguMTNhMi41MSwyLjUxLDAsMCwwLDEuNTQtLjY0bDMuNTUtMy41M2EyLjQ5LDIuNDksMCwwLDAsLjY1LTEuNTJaTTE5LjkzLDMzLjA4LDQ5LjQ0LDUwYTguNzMsOC43MywwLDAsMCwxMy4wNy03LjQ5VjguNjRhOC42OSw4LjY5LDAsMCwwLTE3LjM3LDB2MTlsLTE2LjUzLTkuNWE4LjY1LDguNjUsMCwxLDAtOC42OCwxNVpNODQuNjksNTEuMTZhOC42NCw4LjY0LDAsMCwwLDUtMS4xM2wyOS41LTE3YTguNjUsOC42NSwwLDEsMC04LjY4LTE1TDk0LDI3LjYxdi0xOWE4LjY5LDguNjksMCwwLDAtMTcuMzcsMHYzMy45QTguNjYsOC42NiwwLDAsMCw4NC42OSw1MS4xNlpNNTQuNDgsODhhOC41OCw4LjU4LDAsMCwwLTUsMS4xM0wxOS45MywxMDYuMDZhOC42Niw4LjY2LDAsMSwwLDguNjgsMTVsMTYuNTMtOS40OXYxOWE4LjY5LDguNjksMCwwLDAsMTcuMzcsMFY5Ni42MUE4LjY1LDguNjUsMCwwLDAsNTQuNDgsODhabS04LTE1Ljg3YTguNjEsOC42MSwwLDAsMC00LTEwTDEzLDQ1LjE0QTguNjksOC42OSwwLDAsMCwxLjE3LDQ4LjMxLDguNTksOC41OSwwLDAsMCw0LjM1LDYwLjFsMTYuNDcsOS40OUw0LjM1LDc5QTguNjUsOC42NSwwLDEsMCwxMyw5NGwyOS40OC0xN0E4LjU5LDguNTksMCwwLDAsNDYuNDcsNzIuMTNabTkzLjE1LTU2LjIySDEzOC4zdjEuNjNoMS4zMmMuNjEsMCwxLS4yOCwxLS44UzE0MC4yNiwxNS45MSwxMzkuNjIsMTUuOTFabS0yLjk0LTEuNWgzYzEuNjIsMCwyLjcuODksMi43LDIuMjdhMi4xNiwyLjE2LDAsMCwxLTEuMDgsMS45bDEuMTcsMS42OHYuMzRoLTEuNjlMMTM5LjYyLDE5SDEzOC4zVjIwLjZoLTEuNjJabTguMywzLjIyYTUuNDgsNS40OCwwLDAsMC01LjU4LTUuODNjLTMuMzEsMC01LjUxLDIuMzktNS41MSw1LjgzLDAsMy4yOCwyLjIsNS44Miw1LjUxLDUuODJBNS40Nyw1LjQ3LDAsMCwwLDE0NSwxNy42M1ptMS4zOCwwYzAsMy44OS0yLjYsNy4xNC03LDcuMTRzLTYuODktMy4yOC02Ljg5LTcuMTQsMi41Ny03LjE0LDYuODktNy4xNFMxNDYuMzYsMTMuNzMsMTQ2LjM2LDE3LjYzWiIgY2xhc3M9ImNscy0yIi8+PC9nPjwvc3ZnPg==;movable=1;resizable=1;rotatable=1;deletable=1;editable=1;locked=0;connectable=1;" parent="1" vertex="1">
          <mxGeometry x="610" y="322.5" width="26.25" height="25" as="geometry" />
        </mxCell>
        <mxCell id="DA-zJDTFARd0w5QgR1MB-147" value="Private Account Switzerland Region" style="text;html=1;strokeColor=none;fillColor=none;align=left;verticalAlign=middle;whiteSpace=wrap;rounded=0;fontSize=11;fontColor=#648D99;" parent="1" vertex="1">
          <mxGeometry x="643" y="320" width="187" height="30" as="geometry" />
        </mxCell>
        <mxCell id="DA-zJDTFARd0w5QgR1MB-148" value="" style="endArrow=classic;startArrow=classic;html=1;rounded=0;exitX=1;exitY=0.5;exitDx=0;exitDy=0;" parent="1" edge="1">
          <mxGeometry width="50" height="50" relative="1" as="geometry">
            <mxPoint x="516.25" y="140" as="sourcePoint" />
            <mxPoint x="620" y="140" as="targetPoint" />
          </mxGeometry>
        </mxCell>
        <mxCell id="DA-zJDTFARd0w5QgR1MB-149" value="" style="endArrow=classic;startArrow=classic;html=1;rounded=0;exitX=1;exitY=0.5;exitDx=0;exitDy=0;" parent="1" edge="1">
          <mxGeometry width="50" height="50" relative="1" as="geometry">
            <mxPoint x="516.25" y="199.5" as="sourcePoint" />
            <mxPoint x="620" y="200" as="targetPoint" />
          </mxGeometry>
        </mxCell>
        <mxCell id="DA-zJDTFARd0w5QgR1MB-150" value="" style="endArrow=classic;startArrow=classic;html=1;rounded=0;exitX=1;exitY=0.5;exitDx=0;exitDy=0;" parent="1" edge="1">
          <mxGeometry width="50" height="50" relative="1" as="geometry">
            <mxPoint x="516.25" y="259.5" as="sourcePoint" />
            <mxPoint x="620" y="259.5" as="targetPoint" />
          </mxGeometry>
        </mxCell>
        <mxCell id="DA-zJDTFARd0w5QgR1MB-151" value="" style="endArrow=classic;startArrow=classic;html=1;rounded=0;exitX=1;exitY=0.5;exitDx=0;exitDy=0;" parent="1" edge="1">
          <mxGeometry width="50" height="50" relative="1" as="geometry">
            <mxPoint x="516.25" y="379.5" as="sourcePoint" />
            <mxPoint x="620" y="379.5" as="targetPoint" />
          </mxGeometry>
        </mxCell>
        <mxCell id="DA-zJDTFARd0w5QgR1MB-152" value="" style="endArrow=classic;startArrow=classic;html=1;rounded=0;exitX=1;exitY=0.5;exitDx=0;exitDy=0;" parent="1" edge="1">
          <mxGeometry width="50" height="50" relative="1" as="geometry">
            <mxPoint x="516.25" y="439.5" as="sourcePoint" />
            <mxPoint x="620" y="439.5" as="targetPoint" />
          </mxGeometry>
        </mxCell>
        <mxCell id="ec4kGuJ63dupFwRssyIy-31" value="" style="rounded=0;whiteSpace=wrap;html=1;fillColor=none;" vertex="1" parent="1">
          <mxGeometry x="-190" y="307.75" width="170" height="180" as="geometry" />
        </mxCell>
        <mxCell id="ec4kGuJ63dupFwRssyIy-32" value="" style="group" vertex="1" connectable="0" parent="1">
          <mxGeometry x="-190" y="414.75" width="90.00000000000006" height="80" as="geometry" />
        </mxCell>
        <mxCell id="ec4kGuJ63dupFwRssyIy-33" value="" style="sketch=0;pointerEvents=1;shadow=0;dashed=0;html=1;strokeColor=none;fillColor=#505050;labelPosition=center;verticalLabelPosition=bottom;verticalAlign=top;outlineConnect=0;align=center;shape=mxgraph.office.communications.messages_queued;aspect=fixed;" vertex="1" parent="ec4kGuJ63dupFwRssyIy-32">
          <mxGeometry x="29.300000000000026" width="31.05" height="30" as="geometry" />
        </mxCell>
        <mxCell id="ec4kGuJ63dupFwRssyIy-34" value="Inbound Email&lt;br style=&quot;font-size: 9px;&quot;&gt;Attachment" style="text;html=1;strokeColor=none;fillColor=none;align=center;verticalAlign=middle;whiteSpace=wrap;rounded=0;fontSize=9;" vertex="1" parent="ec4kGuJ63dupFwRssyIy-32">
          <mxGeometry x="-0.1699999999999715" y="30" width="90" height="30" as="geometry" />
        </mxCell>
        <mxCell id="ec4kGuJ63dupFwRssyIy-35" value="" style="group" vertex="1" connectable="0" parent="1">
          <mxGeometry x="-115" y="344.75" width="90" height="130" as="geometry" />
        </mxCell>
        <mxCell id="ec4kGuJ63dupFwRssyIy-36" value="" style="sketch=0;pointerEvents=1;shadow=0;dashed=0;html=1;strokeColor=none;fillColor=#505050;labelPosition=center;verticalLabelPosition=bottom;verticalAlign=top;outlineConnect=0;align=center;shape=mxgraph.office.servers.file_server;aspect=fixed;" vertex="1" parent="ec4kGuJ63dupFwRssyIy-35">
          <mxGeometry x="28.93" width="24.11" height="30" as="geometry" />
        </mxCell>
        <mxCell id="ec4kGuJ63dupFwRssyIy-37" value="Third-Party&lt;br style=&quot;font-size: 9px;&quot;&gt;SFTP Server" style="text;html=1;strokeColor=none;fillColor=none;align=center;verticalAlign=middle;whiteSpace=wrap;rounded=0;fontSize=9;" vertex="1" parent="ec4kGuJ63dupFwRssyIy-35">
          <mxGeometry x="-4.02" y="30" width="90" height="30" as="geometry" />
        </mxCell>
        <mxCell id="ec4kGuJ63dupFwRssyIy-38" value="" style="group" vertex="1" connectable="0" parent="ec4kGuJ63dupFwRssyIy-35">
          <mxGeometry x="-4.02000000000001" y="70" width="90" height="60" as="geometry" />
        </mxCell>
        <mxCell id="ec4kGuJ63dupFwRssyIy-39" value="" style="sketch=0;pointerEvents=1;shadow=0;dashed=0;html=1;strokeColor=none;fillColor=#505050;labelPosition=center;verticalLabelPosition=bottom;verticalAlign=top;outlineConnect=0;align=center;shape=mxgraph.office.communications.3rd_party_service;aspect=fixed;" vertex="1" parent="ec4kGuJ63dupFwRssyIy-38">
          <mxGeometry x="30.279999999999973" width="29.45" height="30" as="geometry" />
        </mxCell>
        <mxCell id="ec4kGuJ63dupFwRssyIy-40" value="Third-Party&lt;br style=&quot;font-size: 9px;&quot;&gt;Process" style="text;html=1;strokeColor=none;fillColor=none;align=center;verticalAlign=middle;whiteSpace=wrap;rounded=0;fontSize=9;" vertex="1" parent="ec4kGuJ63dupFwRssyIy-38">
          <mxGeometry y="30" width="90" height="30" as="geometry" />
        </mxCell>
        <mxCell id="ec4kGuJ63dupFwRssyIy-41" value="" style="group" vertex="1" connectable="0" parent="1">
          <mxGeometry x="-185" y="344.75" width="90" height="80" as="geometry" />
        </mxCell>
        <mxCell id="ec4kGuJ63dupFwRssyIy-42" value="" style="sketch=0;pointerEvents=1;shadow=0;dashed=0;html=1;strokeColor=none;fillColor=#505050;labelPosition=center;verticalLabelPosition=bottom;verticalAlign=top;outlineConnect=0;align=center;shape=mxgraph.office.communications.public_im_cloud_service;aspect=fixed;" vertex="1" parent="ec4kGuJ63dupFwRssyIy-41">
          <mxGeometry x="24.31" width="31.04" height="30" as="geometry" />
        </mxCell>
        <mxCell id="ec4kGuJ63dupFwRssyIy-43" value="Third-Party&lt;br style=&quot;font-size: 9px;&quot;&gt;Internet API" style="text;html=1;strokeColor=none;fillColor=none;align=center;verticalAlign=middle;whiteSpace=wrap;rounded=0;fontSize=9;" vertex="1" parent="ec4kGuJ63dupFwRssyIy-41">
          <mxGeometry y="30" width="90" height="30" as="geometry" />
        </mxCell>
        <mxCell id="ec4kGuJ63dupFwRssyIy-44" value="Private data sources" style="text;strokeColor=none;fillColor=none;html=1;fontSize=14;fontStyle=1;verticalAlign=top;align=left;spacingLeft=6;" vertex="1" parent="1">
          <mxGeometry x="-190" y="307.75" width="210" height="40" as="geometry" />
        </mxCell>
        <mxCell id="ec4kGuJ63dupFwRssyIy-45" value="" style="shape=flexArrow;endArrow=classic;html=1;rounded=0;fillColor=#FF9900;" edge="1" parent="1">
          <mxGeometry width="50" height="50" relative="1" as="geometry">
            <mxPoint x="-10" y="189.5" as="sourcePoint" />
            <mxPoint x="60" y="190" as="targetPoint" />
          </mxGeometry>
        </mxCell>
        <mxCell id="ec4kGuJ63dupFwRssyIy-46" value="" style="shape=flexArrow;endArrow=classic;html=1;rounded=0;fillColor=#FF9900;" edge="1" parent="1">
          <mxGeometry width="50" height="50" relative="1" as="geometry">
            <mxPoint x="-10" y="397.25" as="sourcePoint" />
            <mxPoint x="60" y="397.75" as="targetPoint" />
          </mxGeometry>
        </mxCell>
        <mxCell id="ec4kGuJ63dupFwRssyIy-48" value="" style="rounded=0;whiteSpace=wrap;html=1;fillColor=none;" vertex="1" parent="1">
          <mxGeometry x="94.16" y="-150" width="560" height="120" as="geometry" />
        </mxCell>
        <mxCell id="ec4kGuJ63dupFwRssyIy-52" value="" style="group" vertex="1" connectable="0" parent="1">
          <mxGeometry x="94.16" y="-150" width="30" height="30" as="geometry" />
        </mxCell>
        <mxCell id="ec4kGuJ63dupFwRssyIy-49" value="" style="rounded=0;whiteSpace=wrap;html=1;fillColor=#000000;" vertex="1" parent="ec4kGuJ63dupFwRssyIy-52">
          <mxGeometry width="30" height="30" as="geometry" />
        </mxCell>
        <mxCell id="ec4kGuJ63dupFwRssyIy-50" value="" style="ellipse;whiteSpace=wrap;html=1;aspect=fixed;strokeColor=none;" vertex="1" parent="ec4kGuJ63dupFwRssyIy-52">
          <mxGeometry x="1" y="1" width="28" height="28" as="geometry" />
        </mxCell>
        <mxCell id="ec4kGuJ63dupFwRssyIy-47" value="" style="shape=image;verticalLabelPosition=bottom;labelBackgroundColor=default;verticalAlign=top;aspect=fixed;imageAspect=0;image=data:image/svg+xml,PHN2ZyB4bWxucz0iaHR0cDovL3d3dy53My5vcmcvMjAwMC9zdmciIGZpbGw9Im5vbmUiIHZpZXdCb3g9IjAgMCAxMDI0IDEwMjQiIGhlaWdodD0iMTAyNCIgd2lkdGg9IjEwMjQiPiYjeGE7PHBhdGggZmlsbD0iIzFCMUYyMyIgdHJhbnNmb3JtPSJzY2FsZSg2NCkiIGQ9Ik04IDBDMy41OCAwIDAgMy41OCAwIDhDMCAxMS41NCAyLjI5IDE0LjUzIDUuNDcgMTUuNTlDNS44NyAxNS42NiA2LjAyIDE1LjQyIDYuMDIgMTUuMjFDNi4wMiAxNS4wMiA2LjAxIDE0LjM5IDYuMDEgMTMuNzJDNCAxNC4wOSAzLjQ4IDEzLjIzIDMuMzIgMTIuNzhDMy4yMyAxMi41NSAyLjg0IDExLjg0IDIuNSAxMS42NUMyLjIyIDExLjUgMS44MiAxMS4xMyAyLjQ5IDExLjEyQzMuMTIgMTEuMTEgMy41NyAxMS43IDMuNzIgMTEuOTRDNC40NCAxMy4xNSA1LjU5IDEyLjgxIDYuMDUgMTIuNkM2LjEyIDEyLjA4IDYuMzMgMTEuNzMgNi41NiAxMS41M0M0Ljc4IDExLjMzIDIuOTIgMTAuNjQgMi45MiA3LjU4QzIuOTIgNi43MSAzLjIzIDUuOTkgMy43NCA1LjQzQzMuNjYgNS4yMyAzLjM4IDQuNDEgMy44MiAzLjMxQzMuODIgMy4zMSA0LjQ5IDMuMSA2LjAyIDQuMTNDNi42NiAzLjk1IDcuMzQgMy44NiA4LjAyIDMuODZDOC43IDMuODYgOS4zOCAzLjk1IDEwLjAyIDQuMTNDMTEuNTUgMy4wOSAxMi4yMiAzLjMxIDEyLjIyIDMuMzFDMTIuNjYgNC40MSAxMi4zOCA1LjIzIDEyLjMgNS40M0MxMi44MSA1Ljk5IDEzLjEyIDYuNyAxMy4xMiA3LjU4QzEzLjEyIDEwLjY1IDExLjI1IDExLjMzIDkuNDcgMTEuNTNDOS43NiAxMS43OCAxMC4wMSAxMi4yNiAxMC4wMSAxMy4wMUMxMC4wMSAxNC4wOCAxMCAxNC45NCAxMCAxNS4yMUMxMCAxNS40MiAxMC4xNSAxNS42NyAxMC41NSAxNS41OUMxMy43MSAxNC41MyAxNiAxMS41MyAxNiA4QzE2IDMuNTggMTIuNDIgMCA4IDBaIiBjbGlwLXJ1bGU9ImV2ZW5vZGQiIGZpbGwtcnVsZT0iZXZlbm9kZCIvPiYjeGE7PC9zdmc+;" vertex="1" parent="ec4kGuJ63dupFwRssyIy-52">
          <mxGeometry width="30" height="30" as="geometry" />
        </mxCell>
        <mxCell id="ec4kGuJ63dupFwRssyIy-53" value="B-Flexion GitHub Organisation" style="text;strokeColor=none;fillColor=none;html=1;fontSize=14;fontStyle=1;verticalAlign=top;align=left;spacingLeft=6;" vertex="1" parent="1">
          <mxGeometry x="124.16" y="-150" width="160" height="40" as="geometry" />
        </mxCell>
        <mxCell id="ec4kGuJ63dupFwRssyIy-54" value="" style="shape=image;verticalLabelPosition=bottom;labelBackgroundColor=default;verticalAlign=top;aspect=fixed;imageAspect=0;image=data:image/svg+xml,PHN2ZyB4bWxucz0iaHR0cDovL3d3dy53My5vcmcvMjAwMC9zdmciIHZpZXdCb3g9IjAgMCAyNCAyNCIgaGVpZ2h0PSIyNCIgd2lkdGg9IjI0Ij48cGF0aCBkPSJNMyAyLjc1QTIuNzUgMi43NSAwIDAgMSA1Ljc1IDBoMTQuNWEuNzUuNzUgMCAwIDEgLjc1Ljc1djIwLjVhLjc1Ljc1IDAgMCAxLS43NS43NWgtNmEuNzUuNzUgMCAwIDEgMC0xLjVoNS4yNXYtNEg2QTEuNSAxLjUgMCAwIDAgNC41IDE4di43NWMwIC43MTYuNDMgMS4zMzQgMS4wNSAxLjYwNWEuNzUuNzUgMCAwIDEtLjYgMS4zNzRBMy4yNTEgMy4yNTEgMCAwIDEgMyAxOC43NVpNMTkuNSAxLjVINS43NWMtLjY5IDAtMS4yNS41Ni0xLjI1IDEuMjV2MTIuNjUxQTIuOTg5IDIuOTg5IDAgMCAxIDYgMTVoMTMuNVoiLz48cGF0aCBkPSJNNyAxOC4yNWEuMjUuMjUgMCAwIDEgLjI1LS4yNWg1YS4yNS4yNSAwIDAgMSAuMjUuMjV2NS4wMWEuMjUuMjUgMCAwIDEtLjM5Ny4yMDFsLTIuMjA2LTEuNjA0YS4yNS4yNSAwIDAgMC0uMjk0IDBMNy4zOTcgMjMuNDZhLjI1LjI1IDAgMCAxLS4zOTctLjJ2LTUuMDFaIi8+PC9zdmc+;fontColor=#336600;" vertex="1" parent="1">
          <mxGeometry x="114.16" y="-100" width="40" height="40" as="geometry" />
        </mxCell>
        <mxCell id="ec4kGuJ63dupFwRssyIy-55" value="" style="shape=image;verticalLabelPosition=bottom;labelBackgroundColor=default;verticalAlign=top;aspect=fixed;imageAspect=0;image=data:image/svg+xml,PHN2ZyB4bWxucz0iaHR0cDovL3d3dy53My5vcmcvMjAwMC9zdmciIHZpZXdCb3g9IjAgMCAyNCAyNCIgaGVpZ2h0PSIyNCIgd2lkdGg9IjI0Ij48cGF0aCBkPSJNMSAzYTIgMiAwIDAgMSAyLTJoNi41YTIgMiAwIDAgMSAyIDJ2Ni41YTIgMiAwIDAgMS0yIDJIN3Y0LjA2M0M3IDE2LjM1NSA3LjY0NCAxNyA4LjQzOCAxN0gxMi41di0yLjVhMiAyIDAgMCAxIDItMkgyMWEyIDIgMCAwIDEgMiAyVjIxYTIgMiAwIDAgMS0yIDJoLTYuNWEyIDIgMCAwIDEtMi0ydi0yLjVIOC40MzdBMi45MzkgMi45MzkgMCAwIDEgNS41IDE1LjU2MlYxMS41SDNhMiAyIDAgMCAxLTItMlptMi0uNWEuNS41IDAgMCAwLS41LjV2Ni41YS41LjUgMCAwIDAgLjUuNWg2LjVhLjUuNSAwIDAgMCAuNS0uNVYzYS41LjUgMCAwIDAtLjUtLjVaTTE0LjUgMTRhLjUuNSAwIDAgMC0uNS41VjIxYS41LjUgMCAwIDAgLjUuNUgyMWEuNS41IDAgMCAwIC41LS41di02LjVhLjUuNSAwIDAgMC0uNS0uNVoiLz48L3N2Zz4=;" vertex="1" parent="1">
          <mxGeometry x="304.15999999999997" y="-100" width="40" height="40" as="geometry" />
        </mxCell>
        <mxCell id="ec4kGuJ63dupFwRssyIy-56" value="Code&lt;br&gt;repositories" style="text;html=1;strokeColor=none;fillColor=none;align=left;verticalAlign=middle;whiteSpace=wrap;rounded=0;fontColor=#336600;" vertex="1" parent="1">
          <mxGeometry x="159.16" y="-95" width="75" height="30" as="geometry" />
        </mxCell>
        <mxCell id="ec4kGuJ63dupFwRssyIy-57" value="Actions&lt;br&gt;workflows" style="text;html=1;strokeColor=none;fillColor=none;align=left;verticalAlign=middle;whiteSpace=wrap;rounded=0;fontColor=#336600;" vertex="1" parent="1">
          <mxGeometry x="352.15999999999997" y="-95" width="75" height="30" as="geometry" />
        </mxCell>
        <mxCell id="ec4kGuJ63dupFwRssyIy-58" value="" style="shape=image;verticalLabelPosition=bottom;labelBackgroundColor=default;verticalAlign=top;aspect=fixed;imageAspect=0;image=data:image/svg+xml,PHN2ZyB4bWxucz0iaHR0cDovL3d3dy53My5vcmcvMjAwMC9zdmciIHZpZXdCb3g9IjAgMCAyNCAyNCIgaGVpZ2h0PSIyNCIgd2lkdGg9IjI0Ij48cGF0aCBkPSJNNiA5VjcuMjVDNiAzLjg0NSA4LjUwMyAxIDEyIDFzNiAyLjg0NSA2IDYuMjVWOWguNWEyLjUgMi41IDAgMCAxIDIuNSAyLjV2OGEyLjUgMi41IDAgMCAxLTIuNSAyLjVoLTEzQTIuNSAyLjUgMCAwIDEgMyAxOS41di04QTIuNSAyLjUgMCAwIDEgNS41IDlabS0xLjUgMi41djhhMSAxIDAgMCAwIDEgMWgxM2ExIDEgMCAwIDAgMS0xdi04YTEgMSAwIDAgMC0xLTFoLTEzYTEgMSAwIDAgMC0xIDFabTMtNC4yNVY5aDlWNy4yNWMwLTIuNjctMS45MjItNC43NS00LjUtNC43NS0yLjU3OCAwLTQuNSAyLjA4LTQuNSA0Ljc1WiIvPjwvc3ZnPg==;" vertex="1" parent="1">
          <mxGeometry x="494.15999999999997" y="-100" width="40" height="40" as="geometry" />
        </mxCell>
        <mxCell id="ec4kGuJ63dupFwRssyIy-59" value="Secrets storing&lt;br&gt;credentials" style="text;html=1;strokeColor=none;fillColor=none;align=left;verticalAlign=middle;whiteSpace=wrap;rounded=0;fontColor=#990000;" vertex="1" parent="1">
          <mxGeometry x="544.16" y="-95" width="100" height="30" as="geometry" />
        </mxCell>
        <mxCell id="ec4kGuJ63dupFwRssyIy-60" value="" style="shape=flexArrow;endArrow=classic;html=1;rounded=0;width=5;endWidth=13;endSize=4.33;fillColor=#000000;" edge="1" parent="1">
          <mxGeometry width="50" height="50" relative="1" as="geometry">
            <mxPoint x="150" as="sourcePoint" />
            <mxPoint x="149.5" y="40" as="targetPoint" />
          </mxGeometry>
        </mxCell>
        <mxCell id="ec4kGuJ63dupFwRssyIy-62" value="" style="shape=flexArrow;endArrow=classic;html=1;rounded=0;width=5;endWidth=13;endSize=4.33;fillColor=#000000;" edge="1" parent="1">
          <mxGeometry width="50" height="50" relative="1" as="geometry">
            <mxPoint x="427.66" as="sourcePoint" />
            <mxPoint x="427.16" y="40" as="targetPoint" />
          </mxGeometry>
        </mxCell>
        <mxCell id="ec4kGuJ63dupFwRssyIy-63" value="" style="shape=flexArrow;endArrow=classic;html=1;rounded=0;width=5;endWidth=13;endSize=4.33;fillColor=#000000;" edge="1" parent="1">
          <mxGeometry width="50" height="50" relative="1" as="geometry">
            <mxPoint x="725" as="sourcePoint" />
            <mxPoint x="724.5" y="40" as="targetPoint" />
          </mxGeometry>
        </mxCell>
        <mxCell id="ec4kGuJ63dupFwRssyIy-64" value="" style="rounded=0;whiteSpace=wrap;html=1;fillColor=#000000;" vertex="1" parent="1">
          <mxGeometry x="150.16" width="573" height="5" as="geometry" />
        </mxCell>
        <mxCell id="ec4kGuJ63dupFwRssyIy-65" value="" style="rounded=0;whiteSpace=wrap;html=1;fillColor=#000000;rotation=90;" vertex="1" parent="1">
          <mxGeometry x="356.34" y="-15.34" width="34" height="5" as="geometry" />
        </mxCell>
        <mxCell id="ec4kGuJ63dupFwRssyIy-66" value="Code deployments" style="text;html=1;strokeColor=none;fillColor=none;align=center;verticalAlign=middle;whiteSpace=wrap;rounded=0;" vertex="1" parent="1">
          <mxGeometry x="356.34" y="-25" width="150" height="30" as="geometry" />
        </mxCell>
        <mxCell id="ec4kGuJ63dupFwRssyIy-72" value="&lt;b&gt;&lt;u&gt;Key:&lt;br&gt;&lt;/u&gt;&lt;/b&gt;&lt;br&gt;&lt;font color=&quot;#336600&quot;&gt;General access to B-Flexion developers&lt;br&gt;&lt;/font&gt;Access required to B-Flexion operations for support purposes only&lt;br&gt;&lt;font color=&quot;#990000&quot;&gt;Write-only access to privileged individuals to enter credentials&lt;/font&gt;&lt;br&gt;&lt;br&gt;&lt;i&gt;No action directly to data sources&lt;/i&gt;" style="text;html=1;strokeColor=none;fillColor=none;align=left;verticalAlign=middle;whiteSpace=wrap;rounded=0;" vertex="1" parent="1">
          <mxGeometry x="174.15999999999997" y="540" width="370" height="90" as="geometry" />
        </mxCell>
      </root>
    </mxGraphModel>
  </diagram>
</mxfile>
